<svg width="30" height="31" viewBox="0 0 30 31" fill="none" xmlns="http://www.w3.org/2000/svg">
<path d="M7.78162 6.21431C7.29346 5.70989 6.50201 5.70989 6.01385 6.21431C5.5257 6.71875 5.5257 7.53658 6.01385 8.04102L13.2322 15.5L6.01392 22.959C5.52577 23.4634 5.52577 24.2813 6.01392 24.7857C6.50209 25.2901 7.29354 25.2901 7.78169 24.7857L15 17.3267L22.2184 24.7857C22.7065 25.2901 23.498 25.2901 23.9861 24.7857C24.4742 24.2813 24.4742 23.4634 23.9861 22.959L16.7677 15.5L23.9862 8.04102C24.4744 7.53658 24.4744 6.71875 23.9862 6.21431C23.4981 5.70989 22.7066 5.70989 22.2185 6.21431L15 13.6733L7.78162 6.21431Z" fill="black"/>
</svg>
