<svg width="16" height="16" viewBox="0 0 16 16" fill="none" xmlns="http://www.w3.org/2000/svg">
<path d="M8 0.533333L8.34709 0.128397C8.14736 -0.0427989 7.85264 -0.0427989 7.65291 0.128397L8 0.533333ZM0.533333 6.93333L0.186244 6.52839L0 6.68803V6.93333H0.533333ZM5.86667 15.4667V16C6.16122 16 6.4 15.7612 6.4 15.4667H5.86667ZM10.1333 15.4667H9.6C9.6 15.7612 9.83878 16 10.1333 16V15.4667ZM15.4667 6.93333H16V6.68803L15.8138 6.52839L15.4667 6.93333ZM1.6 16H5.86667V14.9333H1.6V16ZM15.8138 6.52839L8.34709 0.128397L7.65291 0.93827L15.1196 7.33827L15.8138 6.52839ZM7.65291 0.128397L0.186244 6.52839L0.880422 7.33827L8.34709 0.93827L7.65291 0.128397ZM6.4 15.4667V12.2667H5.33333V15.4667H6.4ZM9.6 12.2667V15.4667H10.6667V12.2667H9.6ZM10.1333 16H14.4V14.9333H10.1333V16ZM16 14.4V6.93333H14.9333V14.4H16ZM0 6.93333V14.4H1.06667V6.93333H0ZM8 10.6667C8.88366 10.6667 9.6 11.383 9.6 12.2667H10.6667C10.6667 10.7939 9.47276 9.6 8 9.6V10.6667ZM8 9.6C6.52724 9.6 5.33333 10.7939 5.33333 12.2667H6.4C6.4 11.383 7.11634 10.6667 8 10.6667V9.6ZM14.4 16C15.2836 16 16 15.2836 16 14.4H14.9333C14.9333 14.6945 14.6945 14.9333 14.4 14.9333V16ZM1.6 14.9333C1.30545 14.9333 1.06667 14.6945 1.06667 14.4H0C0 15.2836 0.716345 16 1.6 16V14.9333Z" fill="#7BF2AB"/>
</svg>
