<svg width="19" height="18" viewBox="0 0 19 18" fill="none" xmlns="http://www.w3.org/2000/svg">
<path d="M11.3889 5V3C11.3889 2.46957 11.1899 1.96086 10.8356 1.58579C10.4814 1.21071 10.001 1 9.5 1H2.88889C2.38792 1 1.90748 1.21071 1.55324 1.58579C1.19901 1.96086 1 2.46957 1 3V15C1 15.5304 1.19901 16.0391 1.55324 16.4142C1.90748 16.7893 2.38792 17 2.88889 17H9.5C10.001 17 10.4814 16.7893 10.8356 16.4142C11.1899 16.0391 11.3889 15.5304 11.3889 15V13" stroke="#7BF2AB" stroke-width="2" stroke-linecap="round" stroke-linejoin="round"/>
<path d="M4.77783 9H18.0001M18.0001 9L15.1667 6M18.0001 9L15.1667 12" stroke="#7BF2AB" stroke-width="2" stroke-linecap="round" stroke-linejoin="round"/>
</svg>
