<svg width="16" height="16" viewBox="0 0 16 16" fill="none" xmlns="http://www.w3.org/2000/svg">
<path d="M6.35203 0.999797C6.48484 0.704397 6.71265 0.45142 7.00626 0.273292C7.29987 0.0951632 7.6459 0 8 0C8.3541 0 8.70013 0.0951632 8.99374 0.273292C9.28735 0.45142 9.51516 0.704397 9.64797 0.999797C10.9624 1.32511 12.1218 2.02973 12.9482 3.00545C13.7745 3.98117 14.2221 5.17403 14.2221 6.40083V10.158L15.8505 12.3562C15.9399 12.4767 15.9911 12.6167 15.999 12.7613C16.0068 12.906 15.9708 13.0498 15.8949 13.1775C15.819 13.3052 15.7059 13.412 15.5679 13.4864C15.4298 13.5608 15.2719 13.6001 15.111 13.6001H11.0799C10.9729 14.2665 10.6027 14.8759 10.037 15.3166C9.47139 15.7574 8.74822 16 8 16C7.25178 16 6.52861 15.7574 5.96297 15.3166C5.39732 14.8759 5.02707 14.2665 4.92005 13.6001H0.889007C0.728083 13.6001 0.570171 13.5608 0.432118 13.4864C0.294065 13.412 0.181051 13.3052 0.105132 13.1775C0.0292137 13.0498 -0.00676056 12.906 0.00104696 12.7613C0.00885447 12.6167 0.060151 12.4767 0.149464 12.3562L1.77788 10.158V6.40083C1.77788 3.8219 3.71563 1.64933 6.35203 0.999797ZM6.74313 13.6001C6.83493 13.8342 7.00516 14.0369 7.23035 14.1803C7.45553 14.3236 7.72459 14.4006 8.00044 14.4006C8.2763 14.4006 8.54536 14.3236 8.77054 14.1803C8.99573 14.0369 9.16596 13.8342 9.25776 13.6001H6.74224H6.74313ZM8 2.40125C6.82128 2.40125 5.69084 2.82263 4.85736 3.5727C4.02387 4.32277 3.55563 5.34007 3.55563 6.40083V10.4004C3.55567 10.5584 3.50371 10.7129 3.4063 10.8444L2.55031 12.0002H13.4488L12.5928 10.8444C12.4957 10.7128 12.4441 10.5583 12.4444 10.4004V6.40083C12.4444 5.34007 11.9761 4.32277 11.1426 3.5727C10.3092 2.82263 9.17872 2.40125 8 2.40125Z" fill="#7BF2AB"/>
</svg>
