<svg width="49" height="49" viewBox="0 0 49 49" fill="none" xmlns="http://www.w3.org/2000/svg">
<path d="M16.1353 12.4326C16.1353 14.6418 14.3444 16.4326 12.1353 16.4326C9.92611 16.4326 8.13525 14.6418 8.13525 12.4326C8.13525 10.2235 9.92611 8.43262 12.1353 8.43262C14.3444 8.43262 16.1353 10.2235 16.1353 12.4326Z" fill="black"/>
<path d="M16.1353 24.4326C16.1353 26.6418 14.3444 28.4326 12.1353 28.4326C9.92611 28.4326 8.13525 26.6418 8.13525 24.4326C8.13525 22.2234 9.92611 20.4326 12.1353 20.4326C14.3444 20.4326 16.1353 22.2234 16.1353 24.4326Z" fill="black"/>
<path d="M12.1353 40.4326C14.3444 40.4326 16.1353 38.6418 16.1353 36.4326C16.1353 34.2234 14.3444 32.4326 12.1353 32.4326C9.92611 32.4326 8.13525 34.2234 8.13525 36.4326C8.13525 38.6418 9.92611 40.4326 12.1353 40.4326Z" fill="black"/>
<path d="M28.1353 12.4326C28.1353 14.6418 26.3445 16.4326 24.1353 16.4326C21.9261 16.4326 20.1353 14.6418 20.1353 12.4326C20.1353 10.2235 21.9261 8.43262 24.1353 8.43262C26.3445 8.43262 28.1353 10.2235 28.1353 12.4326Z" fill="black"/>
<path d="M24.1353 28.4326C26.3445 28.4326 28.1353 26.6418 28.1353 24.4326C28.1353 22.2234 26.3445 20.4326 24.1353 20.4326C21.9261 20.4326 20.1353 22.2234 20.1353 24.4326C20.1353 26.6418 21.9261 28.4326 24.1353 28.4326Z" fill="black"/>
<path d="M28.1353 36.4326C28.1353 38.6418 26.3445 40.4326 24.1353 40.4326C21.9261 40.4326 20.1353 38.6418 20.1353 36.4326C20.1353 34.2234 21.9261 32.4326 24.1353 32.4326C26.3445 32.4326 28.1353 34.2234 28.1353 36.4326Z" fill="black"/>
<path d="M36.1353 16.4326C38.3445 16.4326 40.1353 14.6418 40.1353 12.4326C40.1353 10.2235 38.3445 8.43262 36.1353 8.43262C33.9261 8.43262 32.1353 10.2235 32.1353 12.4326C32.1353 14.6418 33.9261 16.4326 36.1353 16.4326Z" fill="black"/>
<path d="M40.1353 24.4326C40.1353 26.6418 38.3445 28.4326 36.1353 28.4326C33.9261 28.4326 32.1353 26.6418 32.1353 24.4326C32.1353 22.2234 33.9261 20.4326 36.1353 20.4326C38.3445 20.4326 40.1353 22.2234 40.1353 24.4326Z" fill="black"/>
<path d="M36.1353 40.4326C38.3445 40.4326 40.1353 38.6418 40.1353 36.4326C40.1353 34.2234 38.3445 32.4326 36.1353 32.4326C33.9261 32.4326 32.1353 34.2234 32.1353 36.4326C32.1353 38.6418 33.9261 40.4326 36.1353 40.4326Z" fill="black"/>
</svg>
