<svg width="20" height="20" viewBox="0 0 20 20" fill="none" xmlns="http://www.w3.org/2000/svg">
<path d="M12.6667 19.3333H12C12 19.5859 12.1427 19.8167 12.3685 19.9296C12.5944 20.0425 12.8647 20.0181 13.0667 19.8667L12.6667 19.3333ZM15.3333 17.3333L15.7333 16.8C15.4963 16.6223 15.1704 16.6223 14.9333 16.8L15.3333 17.3333ZM18 19.3333L17.6 19.8667C17.802 20.0181 18.0723 20.0425 18.2981 19.9296C18.524 19.8167 18.6667 19.5859 18.6667 19.3333H18ZM15.3333 14.6667C13.4924 14.6667 12 13.1743 12 11.3333H10.6667C10.6667 13.9107 12.756 16 15.3333 16V14.6667ZM18.6667 11.3333C18.6667 13.1743 17.1743 14.6667 15.3333 14.6667V16C17.9107 16 20 13.9107 20 11.3333H18.6667ZM15.3333 8C17.1743 8 18.6667 9.49239 18.6667 11.3333H20C20 8.756 17.9107 6.66667 15.3333 6.66667V8ZM15.3333 6.66667C12.756 6.66667 10.6667 8.756 10.6667 11.3333H12C12 9.49239 13.4924 8 15.3333 8V6.66667ZM12 14V19.3333H13.3333V14H12ZM13.0667 19.8667L15.7333 17.8667L14.9333 16.8L12.2667 18.8L13.0667 19.8667ZM14.9333 17.8667L17.6 19.8667L18.4 18.8L15.7333 16.8L14.9333 17.8667ZM18.6667 19.3333V14H17.3333V19.3333H18.6667ZM20 6.66667V2H18.6667V6.66667H20ZM18 0H2V1.33333H18V0ZM0 2V18H1.33333V2H0ZM2 20H10.6667V18.6667H2V20ZM0 18C0 19.1045 0.895431 20 2 20V18.6667C1.63181 18.6667 1.33333 18.3681 1.33333 18H0ZM2 0C0.895432 0 0 0.895431 0 2H1.33333C1.33333 1.63181 1.63181 1.33333 2 1.33333V0ZM20 2C20 0.895431 19.1045 0 18 0V1.33333C18.3681 1.33333 18.6667 1.63181 18.6667 2H20ZM4 6.66667H10.6667V5.33333H4V6.66667ZM4 10.6667H8V9.33333H4V10.6667Z" fill="white"/>
</svg>
