<svg width="18" height="17" viewBox="0 0 18 17" fill="none" xmlns="http://www.w3.org/2000/svg">
<path d="M12.2142 5.20968C11.6878 2.14899 10.4465 0 9.00182 0C7.55717 0 6.31579 2.14899 5.78947 5.20968H12.2142ZM5.51724 8.5C5.51724 9.26089 5.5608 9.99093 5.63702 10.6935H12.363C12.4392 9.99093 12.4828 9.26089 12.4828 8.5C12.4828 7.73911 12.4392 7.00907 12.363 6.30645H5.63702C5.5608 7.00907 5.51724 7.73911 5.51724 8.5ZM17.3031 5.20968C16.265 2.88246 14.1633 1.08306 11.5681 0.356452C12.4537 1.51492 13.0635 3.25948 13.3829 5.20968H17.3031ZM6.43194 0.356452C3.84029 1.08306 1.73503 2.88246 0.700544 5.20968H4.62069C4.93648 3.25948 5.54628 1.51492 6.43194 0.356452ZM17.6915 6.30645H13.5281C13.6044 7.02621 13.6479 7.7631 13.6479 8.5C13.6479 9.2369 13.6044 9.97379 13.5281 10.6935H17.6878C17.8875 9.99093 18 9.26089 18 8.5C18 7.73911 17.8875 7.00907 17.6915 6.30645ZM4.35572 8.5C4.35572 7.7631 4.39927 7.02621 4.4755 6.30645H0.31216C0.116152 7.00907 0 7.73911 0 8.5C0 9.26089 0.116152 9.99093 0.31216 10.6935H4.47187C4.39927 9.97379 4.35572 9.2369 4.35572 8.5ZM5.78947 11.7903C6.31579 14.851 7.55717 17 9.00182 17C10.4465 17 11.6878 14.851 12.2142 11.7903H5.78947ZM11.5717 16.6435C14.1633 15.9169 16.2686 14.1175 17.3067 11.7903H13.3866C13.0672 13.7405 12.4573 15.4851 11.5717 16.6435ZM0.700544 11.7903C1.73866 14.1175 3.84029 15.9169 6.43557 16.6435C5.54991 15.4851 4.94011 13.7405 4.62069 11.7903H0.700544Z" fill="#000"/>
</svg>
