<svg width="16" height="16" viewBox="0 0 16 16" fill="none" xmlns="http://www.w3.org/2000/svg">
<path d="M14.332 7.9975L15.769 6.5911C16.1974 6.18557 15.9976 5.46488 15.4357 5.33051L13.4779 4.83082L14.0298 2.89285C14.1858 2.33542 13.6602 1.80964 13.1029 1.96564L11.1656 2.51773L10.6661 0.559263C10.5339 0.00617011 9.80518 -0.196111 9.40596 0.225889L8.00002 1.67407L6.59411 0.22592C6.19942 -0.191298 5.46764 -0.000142415 5.33395 0.559294L4.83445 2.51776L2.8971 1.96567C2.33969 1.80961 1.81425 2.33557 1.97019 2.89289L2.5221 4.83085L0.564281 5.33054C0.00215519 5.46494 -0.197189 6.18576 0.230999 6.5911L1.66803 7.9975L0.230999 9.40388C-0.197376 9.80941 0.00237402 10.5301 0.56425 10.6645L2.52207 11.1642L1.97016 13.1021C1.81419 13.6596 2.33982 14.1853 2.89707 14.0293L4.83438 13.4772L5.33389 15.4357C5.4726 16.0162 6.19939 16.1863 6.59404 15.7691L8.00002 14.3316L9.40593 15.7691C9.79655 16.1906 10.5305 16.003 10.6661 15.4357L11.1656 13.4772L13.1029 14.0293C13.6603 14.1854 14.1857 13.6594 14.0298 13.1021L13.4779 11.1642L15.4357 10.6645C15.9978 10.53 16.1972 9.80925 15.769 9.40388L14.332 7.9975Z" fill="#7BF2AB"/>
</svg>
