<svg width="18" height="18" viewBox="0 0 18 18" fill="none" xmlns="http://www.w3.org/2000/svg">
<path d="M15.1072 18.0001H6.10721C5.33998 18.0001 4.60417 17.6953 4.06165 17.1528C3.51914 16.6103 3.21436 15.8744 3.21436 15.1072V6.10721C3.21436 5.33998 3.51914 4.60417 4.06165 4.06165C4.60417 3.51914 5.33998 3.21436 6.10721 3.21436H15.1072C15.8744 3.21436 16.6103 3.51914 17.1528 4.06165C17.6953 4.60417 18.0001 5.33998 18.0001 6.10721V15.1072C18.0001 15.8744 17.6953 16.6103 17.1528 17.1528C16.6103 17.6953 15.8744 18.0001 15.1072 18.0001Z" fill="#058C42"/>
<path d="M5.14286 1.92857H14.6202C14.4202 1.36496 14.0507 0.877047 13.5624 0.531758C13.0741 0.186469 12.4909 0.000722012 11.8929 0H2.89286C2.12562 0 1.38981 0.304782 0.847298 0.847298C0.304782 1.38981 0 2.12562 0 2.89286V11.8929C0.000722012 12.4909 0.186469 13.0741 0.531758 13.5624C0.877047 14.0507 1.36496 14.4202 1.92857 14.6202V5.14286C1.92857 4.29038 2.26722 3.47281 2.87001 2.87001C3.47281 2.26722 4.29038 1.92857 5.14286 1.92857Z" fill="#058C42"/>
</svg>
