<svg width="48" height="48" viewBox="0 0 48 48" fill="none" xmlns="http://www.w3.org/2000/svg">
<path d="M24 4C24.5304 4 25.0391 4.21071 25.4142 4.58579C25.7893 4.96086 26 5.46957 26 6V27.172L30.586 22.586C30.9632 22.2217 31.4684 22.0201 31.9928 22.0247C32.5172 22.0292 33.0188 22.2395 33.3896 22.6104C33.7605 22.9812 33.9708 23.4828 33.9753 24.0072C33.9799 24.5316 33.7783 25.0368 33.414 25.414L25.414 33.414C25.0389 33.7889 24.5303 33.9996 24 33.9996C23.4697 33.9996 22.9611 33.7889 22.586 33.414L14.586 25.414C14.395 25.2295 14.2426 25.0088 14.1378 24.7648C14.033 24.5208 13.9778 24.2584 13.9755 23.9928C13.9732 23.7272 14.0238 23.4639 14.1244 23.2181C14.2249 22.9723 14.3734 22.749 14.5612 22.5612C14.749 22.3734 14.9723 22.2249 15.2181 22.1244C15.4639 22.0238 15.7272 21.9732 15.9928 21.9755C16.2584 21.9778 16.5208 22.033 16.7648 22.1378C17.0088 22.2426 17.2295 22.395 17.414 22.586L22 27.172V6C22 5.46957 22.2107 4.96086 22.5858 4.58579C22.9609 4.21071 23.4696 4 24 4ZM10 34C10.5304 34 11.0391 34.2107 11.4142 34.5858C11.7893 34.9609 12 35.4696 12 36V40H36V36C36 35.4696 36.2107 34.9609 36.5858 34.5858C36.9609 34.2107 37.4696 34 38 34C38.5304 34 39.0391 34.2107 39.4142 34.5858C39.7893 34.9609 40 35.4696 40 36V40C40 41.0609 39.5786 42.0783 38.8284 42.8284C38.0783 43.5786 37.0609 44 36 44H12C10.9391 44 9.92172 43.5786 9.17157 42.8284C8.42143 42.0783 8 41.0609 8 40V36C8 35.4696 8.21071 34.9609 8.58579 34.5858C8.96086 34.2107 9.46957 34 10 34Z" fill="#0D0D0D"/>
</svg>
