<svg width="10" height="5" viewBox="0 0 10 5" fill="none" xmlns="http://www.w3.org/2000/svg">
<path d="M4.71873 4.89224L0.116714 0.628644C0.0610591 0.577212 0.0231245 0.511639 0.00771153 0.440225C-0.00770147 0.36881 9.97996e-05 0.294765 0.0301285 0.22746C0.0601572 0.160155 0.111063 0.102616 0.176403 0.0621263C0.241743 0.0216364 0.31858 1.54694e-05 0.397189 0H9.60281C9.68142 1.54694e-05 9.75826 0.0216364 9.8236 0.0621263C9.88894 0.102616 9.93984 0.160155 9.96987 0.22746C9.9999 0.294765 10.0077 0.36881 9.99229 0.440225C9.97688 0.511639 9.93894 0.577212 9.88329 0.628644L5.28048 4.89224C5.20598 4.96124 5.10495 5 4.9996 5C4.89426 5 4.79323 4.96124 4.71873 4.89224Z" fill="#FF9418"/>
</svg>
