<svg width="49" height="49" viewBox="0 0 49 49" fill="none" xmlns="http://www.w3.org/2000/svg">
<path d="M33.1539 4.84924C33.5289 4.4743 34.0375 4.26367 34.5679 4.26367C35.0982 4.26367 35.6068 4.4743 35.9819 4.84924L43.9819 12.8492C44.3568 13.2243 44.5674 13.7329 44.5674 14.2632C44.5674 14.7936 44.3568 15.3022 43.9819 15.6772L17.9819 41.6772C17.6069 42.0523 17.0983 42.2631 16.5679 42.2632H8.56787C8.03744 42.2632 7.52873 42.0525 7.15366 41.6775C6.77858 41.3024 6.56787 40.7937 6.56787 40.2632V32.2632C6.56798 31.7329 6.77877 31.2242 7.15387 30.8492L27.1539 10.8492L33.1539 4.84924ZM28.5679 15.0912L10.5679 33.0912V38.2632H15.7399L33.7399 20.2632L28.5679 15.0912ZM36.5679 17.4352L39.7399 14.2632L34.5679 9.09124L31.3959 12.2632L36.5679 17.4352Z" fill="white"/>
</svg>
