<svg width="16" height="16" viewBox="0 0 16 16" fill="none" xmlns="http://www.w3.org/2000/svg">
<path d="M8 16C3.58172 16 0 12.4182 0 8C0 3.58172 3.58172 0 8 0C12.4182 0 16 3.58172 16 8C15.9951 12.4162 12.4162 15.9951 8 16ZM7.2 12V13.6H8.8V12H7.2ZM8 4C8.88368 4 9.6 4.71634 9.6 5.6C9.6028 6.02458 9.43232 6.43192 9.128 6.728L8.136 7.736C7.53712 8.33736 7.20064 9.15128 7.2 10V10.4H8.8C8.73784 9.54 9.08472 8.70104 9.736 8.136L10.456 7.4C10.9345 6.92344 11.2024 6.27529 11.2 5.6C11.2 3.83269 9.76728 2.4 8 2.4C6.23269 2.4 4.8 3.83269 4.8 5.6H6.4C6.4 4.71634 7.11632 4 8 4Z" fill="#7BF2AB"/>
</svg>
