<svg width="20" height="20" viewBox="0 0 20 20" fill="none" xmlns="http://www.w3.org/2000/svg">
<path d="M10.001 20C4.48011 19.9939 0.0060606 15.5203 0 10V9.80001C0.109941 4.30454 4.63505 -0.0720315 10.1317 0.000898364C15.6283 0.0738183 20.0357 4.56889 19.9998 10.0653C19.9639 15.5618 15.4981 19.9989 10.001 20ZM9.98499 18H10.001C14.4181 17.9956 17.996 14.4127 17.9938 9.99601C17.9916 5.5793 14.4101 2.00002 9.99299 2.00002C5.57583 2.00002 1.99441 5.5793 1.9922 9.99601C1.98999 14.4127 5.56784 17.9956 9.98499 18ZM11.0011 16H9.00089V14H11.0011V16ZM11.0011 13H9.00089C8.96929 11.6977 9.64706 10.4808 10.7711 9.82201C11.4311 9.31601 12.0012 8.88002 12.0012 8.00001C12.0012 6.89544 11.1057 6.00001 10.001 6.00001C8.89628 6.00001 8.00079 6.89544 8.00079 8.00001H6.00059V7.91001C6.01668 6.48095 6.794 5.16901 8.0398 4.46841C9.28552 3.7678 10.8105 3.78495 12.0402 4.51341C13.2698 5.24186 14.0175 6.57095 14.0014 8.00001C13.9298 9.07902 13.351 10.0602 12.4412 10.645C11.6189 11.1612 11.0858 12.0328 11.0011 13Z" fill="black"/>
</svg>
