<svg width="34" height="34" viewBox="0 0 34 34" fill="none" xmlns="http://www.w3.org/2000/svg">
<path d="M27 1H7C3.68629 1 1 3.68629 1 7V27C1 30.3137 3.68629 33 7 33H27C30.3137 33 33 30.3137 33 27V7C33 3.68629 30.3137 1 27 1Z" stroke="black" stroke-width="2" stroke-linecap="round" stroke-linejoin="round"/>
<path d="M1 22.9999L9 14.9999C9.91212 14.1222 10.9468 13.6602 12 13.6602C13.0532 13.6602 14.0879 14.1222 15 14.9999L25 24.9999" stroke="black" stroke-width="2" stroke-linecap="round" stroke-linejoin="round"/>
<path d="M21 20.9999L23 18.9999C23.9121 18.1222 24.9468 17.6602 26 17.6602C27.0532 17.6602 28.0879 18.1222 29 18.9999L33 22.9999" stroke="black" stroke-width="2" stroke-linecap="round" stroke-linejoin="round"/>
</svg>
