<svg width="10" height="10" viewBox="0 0 10 10" fill="none" xmlns="http://www.w3.org/2000/svg">
<path fill-rule="evenodd" clip-rule="evenodd" d="M5 0C5.17297 0 5.33885 0.0687109 5.46116 0.191017C5.58346 0.313324 5.65217 0.479207 5.65217 0.652174V4.34783H9.34783C9.52079 4.34783 9.68668 4.41654 9.80898 4.53884C9.93129 4.66115 10 4.82703 10 5C10 5.17297 9.93129 5.33885 9.80898 5.46116C9.68668 5.58346 9.52079 5.65217 9.34783 5.65217H5.65217V9.34783C5.65217 9.52079 5.58346 9.68668 5.46116 9.80898C5.33885 9.93129 5.17297 10 5 10C4.82703 10 4.66115 9.93129 4.53884 9.80898C4.41654 9.68668 4.34783 9.52079 4.34783 9.34783V5.65217H0.652174C0.479207 5.65217 0.313324 5.58346 0.191017 5.46116C0.0687109 5.33885 0 5.17297 0 5C0 4.82703 0.0687109 4.66115 0.191017 4.53884C0.313324 4.41654 0.479207 4.34783 0.652174 4.34783H4.34783V0.652174C4.34783 0.479207 4.41654 0.313324 4.53884 0.191017C4.66115 0.0687109 4.82703 0 5 0Z" fill="black"/>
</svg>
