<svg width="49" height="49" viewBox="0 0 49 49" fill="none" xmlns="http://www.w3.org/2000/svg">
<g clip-path="url(#clip0_138_2)">
<path d="M35.9 13.1116C33 10.2116 29.02 8.41162 24.6 8.41162C15.76 8.41162 8.62 15.5716 8.62 24.4116C8.62 33.2516 15.76 40.4116 24.6 40.4116C32.06 40.4116 38.28 35.3116 40.06 28.4116H35.9C34.26 33.0716 29.82 36.4116 24.6 36.4116C17.98 36.4116 12.6 31.0316 12.6 24.4116C12.6 17.7916 17.98 12.4116 24.6 12.4116C27.92 12.4116 30.88 13.7916 33.04 15.9716L26.6 22.4116H40.6V8.41162L35.9 13.1116Z" fill="black"/>
</g>
<defs>
<clipPath id="clip0_138_2">
<rect width="48" height="48" fill="white" transform="translate(0.599976 0.411621)"/>
</clipPath>
</defs>
</svg>
