<svg width="49" height="49" viewBox="0 0 49 49" fill="none" xmlns="http://www.w3.org/2000/svg">
<path d="M24.6144 16.5371C23.131 16.5371 21.681 16.977 20.4476 17.8011C19.2142 18.6252 18.253 19.7965 17.6853 21.167C17.1176 22.5374 16.9691 24.0454 17.2585 25.5003C17.5479 26.9551 18.2622 28.2915 19.3111 29.3404C20.36 30.3893 21.6964 31.1036 23.1512 31.393C24.6061 31.6824 26.1141 31.5339 27.4845 30.9662C28.855 30.3985 30.0263 29.4373 30.8504 28.2039C31.6745 26.9705 32.1144 25.5205 32.1144 24.0371C32.1085 22.0498 31.3164 20.1456 29.9111 18.7404C28.5059 17.3351 26.6017 16.543 24.6144 16.5371ZM40.8069 24.0371C40.803 24.7379 40.7516 25.4376 40.6531 26.1315L45.2178 29.7052C45.4166 29.8694 45.5506 30.0989 45.5958 30.3527C45.6409 30.6066 45.5944 30.8682 45.4644 31.0909L41.1463 38.5459C41.015 38.7666 40.8101 38.9339 40.5676 39.0184C40.3252 39.103 40.0607 39.0993 39.8206 39.008L34.4535 36.8518C33.3358 37.7124 32.1128 38.4266 30.8141 38.9771L30.0116 44.6752C29.9667 44.9305 29.8345 45.1622 29.6377 45.3308C29.4409 45.4994 29.1916 45.5944 28.9325 45.5996H20.2963C20.0419 45.5947 19.7967 45.5036 19.6007 45.3414C19.4047 45.1791 19.2695 44.9552 19.2172 44.7062L18.4147 39.008C17.1124 38.464 15.8885 37.7486 14.7753 36.8809L9.40814 39.0371C9.16822 39.1284 8.90379 39.1322 8.66133 39.0479C8.41888 38.9635 8.21393 38.7964 8.08252 38.5759L3.76439 31.1218C3.63441 30.8991 3.58785 30.6375 3.63302 30.3837C3.67819 30.1298 3.81214 29.9003 4.01095 29.7362L8.57564 26.1624C8.47828 25.4581 8.42692 24.7481 8.42189 24.0371C8.42579 23.3363 8.47716 22.6366 8.57564 21.9427L4.01095 18.369C3.81214 18.2048 3.67819 17.9753 3.63302 17.7215C3.58785 17.4676 3.63441 17.206 3.76439 16.9834L8.08252 9.52836C8.21378 9.30767 8.41867 9.14033 8.66114 9.0558C8.90361 8.97126 9.16812 8.97493 9.40814 9.06617L14.7753 11.2224C15.8929 10.3618 17.116 9.64758 18.4147 9.09711L19.2172 3.39898C19.2621 3.14375 19.3943 2.91203 19.5911 2.74343C19.7879 2.57483 20.0372 2.47981 20.2963 2.47461H28.9325C29.1869 2.47956 29.4321 2.5706 29.6281 2.73287C29.8241 2.89514 29.9593 3.11905 30.0116 3.36805L30.8141 9.06617C32.118 9.60989 33.3435 10.3253 34.4581 11.1934L39.8206 9.03711C40.0606 8.94579 40.325 8.94197 40.5674 9.02633C40.8099 9.1107 41.0149 9.27783 41.1463 9.49836L45.4644 16.9534C45.5944 17.176 45.6409 17.4377 45.5958 17.6915C45.5506 17.9453 45.4166 18.1748 45.2178 18.339L40.6531 21.9127C40.7505 22.6168 40.8018 23.3264 40.8069 24.0371Z" fill="#fff"/>
</svg>
