<svg width="49" height="48" viewBox="0 0 49 48" fill="none" xmlns="http://www.w3.org/2000/svg">
<path d="M24.5453 3.49902C28.0113 3.49902 30.8437 6.21192 31.0351 9.63018L31.0453 9.99902H41.5453C42.3737 9.99902 43.0453 10.6706 43.0453 11.499C43.0453 12.2584 42.4809 12.886 41.7489 12.9853L41.5453 12.999H39.9533L37.3931 39.0374C37.1277 41.7356 34.9421 43.819 32.2705 43.988L31.9195 43.999H17.1711C14.46 43.999 12.1726 42.028 11.7429 39.3858L11.6976 39.0374L9.13529 12.999H7.54529C6.78589 12.999 6.15831 12.4347 6.05899 11.7026L6.04529 11.499C6.04529 10.7396 6.60959 10.112 7.34175 10.0127L7.54529 9.99902H18.0453C18.0453 6.40916 20.9555 3.49902 24.5453 3.49902ZM36.9393 12.999H12.1493L14.6831 38.7438C14.8006 39.9382 15.7459 40.8676 16.917 40.9862L17.1711 40.999H31.9195C33.1197 40.999 34.1371 40.1492 34.3699 38.9954L34.4075 38.7438L36.9393 12.999ZM28.0453 18.499C28.8047 18.499 29.4323 19.0633 29.5317 19.7955L29.5453 19.999V33.999C29.5453 34.8274 28.8737 35.499 28.0453 35.499C27.2859 35.499 26.6583 34.9346 26.5589 34.2026L26.5453 33.999V19.999C26.5453 19.1706 27.2169 18.499 28.0453 18.499ZM21.0453 18.499C21.8047 18.499 22.4323 19.0633 22.5317 19.7955L22.5453 19.999V33.999C22.5453 34.8274 21.8737 35.499 21.0453 35.499C20.2859 35.499 19.6583 34.9346 19.559 34.2026L19.5453 33.999V19.999C19.5453 19.1706 20.2169 18.499 21.0453 18.499ZM24.5453 6.49902C22.7089 6.49902 21.2029 7.91324 21.0569 9.71196L21.0453 9.99902H28.0453C28.0453 8.06602 26.4783 6.49902 24.5453 6.49902Z" fill="black"/>
</svg>
