<svg width="22" height="22" viewBox="0 0 22 22" fill="none" xmlns="http://www.w3.org/2000/svg">
<path d="M3.22222 2.11111H7.66667L9.88889 7.66667L7.11111 9.33334C8.30107 11.7461 10.2539 13.6989 12.6667 14.8889L14.3333 12.1111L19.8889 14.3333V18.7778C19.8889 19.3672 19.6548 19.9324 19.238 20.3491C18.8213 20.7659 18.256 21 17.6667 21C13.3325 20.7366 9.24462 18.8961 6.17425 15.8258C3.10389 12.7554 1.26339 8.66749 1 4.33334C1 3.74397 1.23413 3.17874 1.65087 2.76199C2.06762 2.34524 2.63285 2.11111 3.22222 2.11111Z" stroke="#343434" stroke-width="2" stroke-linecap="round" stroke-linejoin="round"/>
<path d="M14.3335 5.44444C14.9229 5.44444 15.4881 5.67857 15.9048 6.09532C16.3216 6.51206 16.5557 7.0773 16.5557 7.66667" stroke="#343434" stroke-width="2" stroke-linecap="round" stroke-linejoin="round"/>
<path d="M14.3335 1C16.1016 1 17.7973 1.70238 19.0475 2.95262C20.2978 4.20286 21.0002 5.89856 21.0002 7.66667" stroke="#343434" stroke-width="2" stroke-linecap="round" stroke-linejoin="round"/>
</svg>
