<svg width="49" height="49" viewBox="0 0 49 49" fill="none" xmlns="http://www.w3.org/2000/svg">
<path fill-rule="evenodd" clip-rule="evenodd" d="M24.8593 43.214C35.4632 43.214 44.0593 34.6179 44.0593 24.014C44.0593 13.4101 35.4632 4.81396 24.8593 4.81396C14.2554 4.81396 5.6593 13.4101 5.6593 24.014C5.6593 34.6179 14.2554 43.214 24.8593 43.214ZM33.7563 20.911C34.6935 19.9738 34.6935 18.4542 33.7563 17.5169C32.8191 16.5797 31.2995 16.5797 30.3623 17.5169L22.4593 25.4199L19.3564 22.3169C18.4191 21.3797 16.8995 21.3797 15.9622 22.3169C15.025 23.2542 15.025 24.7738 15.9622 25.711L20.7622 30.511C21.6995 31.4482 23.2191 31.4482 24.1564 30.511L33.7563 20.911Z" fill="#04471C"/>
</svg>
