<svg width="25" height="25" viewBox="0 0 25 25" fill="none" xmlns="http://www.w3.org/2000/svg">
<path d="M22.5118 19.6098C24.1013 18.1931 25.0014 16.3048 25.0014 14.3453C25.0014 12.2628 24.0265 10.3152 22.2562 8.86091C20.5333 7.44601 18.2528 6.66669 15.8345 6.66669C13.4162 6.66669 11.1357 7.44601 9.4131 8.86101C7.64285 10.3152 6.66797 12.2628 6.66797 14.3453C6.66797 16.4278 7.64285 18.3754 9.4131 19.8297C11.1357 21.2447 13.4162 22.0239 15.8345 22.0239C16.1568 22.0239 16.481 22.0097 16.8025 21.9814L17.3518 22.4575C19.244 24.0973 21.6639 24.9999 24.1678 25H25.0011V23.2262L24.757 22.9822C23.7943 22.0166 23.0313 20.8706 22.5118 19.6098ZM18.4433 21.1979L17.3412 20.2427L16.9737 20.2877C16.5957 20.3339 16.2153 20.3571 15.8345 20.3572C11.6992 20.3572 8.33462 17.6602 8.33462 14.3453C8.33462 11.0303 11.6992 8.33335 15.8345 8.33335C19.9699 8.33335 23.3345 11.0303 23.3345 14.3453C23.3345 15.9968 22.5105 17.5387 21.0144 18.6868L20.5344 19.0551L20.7559 19.6819C21.2097 20.9621 21.8768 22.1564 22.7289 23.2141C21.1421 22.9492 19.6591 22.2515 18.4433 21.1979Z" fill="#343434"/>
<path d="M2.30128 15.7019C3.08134 14.7144 3.6938 13.6055 4.11418 12.4194L4.33397 11.7957L3.85444 11.4277C2.44362 10.3451 1.66665 8.89208 1.66665 7.3363C1.66665 4.21005 4.84417 1.66667 8.74991 1.66667C11.6232 1.66667 14.1023 3.04323 15.2122 5.01562C15.4183 5.00563 15.6253 5 15.8332 5C16.2508 5 16.6645 5.02026 17.0745 5.06078C16.6456 3.94958 15.9007 2.93521 14.8766 2.09406C13.2328 0.743698 11.0572 0 8.74991 0C6.44264 0 4.26704 0.743698 2.6231 2.09406C0.931553 3.48359 0 5.34531 0 7.3363C0 9.20088 0.851658 10.9975 2.35675 12.349C1.86557 13.531 1.14788 14.6055 0.244112 15.5119L0 15.756V17.5H0.833325C2.3743 17.4998 3.89409 17.1409 5.27239 16.4518C5.12126 15.879 5.0327 15.2914 5.00828 14.6995C4.17172 15.1898 3.25542 15.5291 2.30128 15.7019Z" fill="#343434"/>
</svg>
