<svg width="15" height="15" viewBox="0 0 15 15" fill="none" xmlns="http://www.w3.org/2000/svg">
<path d="M7.49933 3C6.71711 3.00099 5.96722 3.31217 5.41411 3.86528C4.86099 4.41839 4.54982 5.16828 4.54883 5.9505H6.04883C6.04883 5.15025 6.69983 4.5 7.49933 4.5C8.29883 4.5 8.94983 5.15025 8.94983 5.9505C8.94983 6.399 8.58908 6.7245 8.03783 7.17C7.85774 7.31107 7.68478 7.46101 7.51958 7.61925C6.77108 8.367 6.74933 9.16125 6.74933 9.24975V9.75H8.24933L8.24858 9.27525C8.24933 9.26325 8.27333 8.98575 8.57933 8.6805C8.69183 8.568 8.83358 8.4555 8.98058 8.337C9.56483 7.86375 10.4491 7.149 10.4491 5.9505C10.4485 5.16829 10.1375 4.41828 9.5845 3.8651C9.03147 3.31193 8.28154 3.00079 7.49933 3ZM6.74933 10.5H8.24933V12H6.74933V10.5Z" fill="white"/>
<path d="M7.5 0C3.3645 0 0 3.3645 0 7.5C0 11.6355 3.3645 15 7.5 15C11.6355 15 15 11.6355 15 7.5C15 3.3645 11.6355 0 7.5 0ZM7.5 13.5C4.19175 13.5 1.5 10.8082 1.5 7.5C1.5 4.19175 4.19175 1.5 7.5 1.5C10.8082 1.5 13.5 4.19175 13.5 7.5C13.5 10.8082 10.8082 13.5 7.5 13.5Z" fill="white"/>
</svg>
