<svg width="2052" height="200" viewBox="0 0 2052 200" fill="none" xmlns="http://www.w3.org/2000/svg">
<g clip-path="url(#clip0_377_2)">
<path d="M0.000204086 186.666L-4.1038 17.9995C313.956 -6.00049 632.016 108 847.476 127.333C1058.09 146.233 1153.22 106 1329.7 106.666C1493.86 107.333 1621.08 142 1799.6 160C1934.09 173.56 2006.86 170 2058.16 167.74V204L0.000204086 186.666Z" fill="white" fill-opacity="0.2"/>
<path d="M-4.57764e-05 174L-4.10405 26.0003C318.06 -2.66637 636.12 122 826.956 144.667C1034.43 166.92 1153.22 113.334 1323.54 114C1487.7 114.667 1637.68 150.047 1793.45 172C1927.26 189.06 2007 183.147 2052 183.074V198L-4.57764e-05 174Z" fill="white" fill-opacity="0.4"/>
<path d="M-4.57764e-05 197.333L-2.05205 43.8063C443.232 35.3329 614.512 129.906 826.956 148C1038.31 166 1184 128 1354.32 128.666C1518.48 129.333 1621.26 153.38 1793.45 175.333C1919.09 191.333 2015.06 185.74 2052 182.406V197.333L-4.57764e-05 197.333Z" fill="white"/>
</g>
<defs>
<clipPath id="clip0_377_2">
<rect width="2052" height="200" fill="white" transform="matrix(-1 0 0 1 2052 0)"/>
</clipPath>
</defs>
</svg>
