<svg width="20" height="25" viewBox="0 0 20 25" fill="none" xmlns="http://www.w3.org/2000/svg">
<path d="M10 10.9877C10.4945 10.9877 10.9778 10.841 11.3889 10.5661C11.8 10.2911 12.1205 9.90032 12.3097 9.4431C12.4989 8.98589 12.5484 8.48278 12.452 7.99741C12.3555 7.51203 12.1174 7.06618 11.7678 6.71624C11.4181 6.36631 10.9727 6.128 10.4877 6.03145C10.0028 5.9349 9.50011 5.98445 9.04329 6.17384C8.58648 6.36322 8.19603 6.68393 7.92133 7.09542C7.64662 7.5069 7.5 7.99067 7.5 8.48556C7.5 9.14918 7.76339 9.78562 8.23223 10.2549C8.70107 10.7241 9.33696 10.9877 10 10.9877ZM9.1125 19.6328C9.2287 19.7501 9.36695 19.8431 9.51928 19.9067C9.6716 19.9702 9.83498 20.0029 10 20.0029C10.165 20.0029 10.3284 19.9702 10.4807 19.9067C10.633 19.8431 10.7713 19.7501 10.8875 19.6328L16 14.5033C17.1874 13.3155 17.9962 11.8018 18.3241 10.1538C18.6519 8.50586 18.4841 6.79759 17.8419 5.24509C17.1996 3.69258 16.1117 2.36559 14.7159 1.43196C13.32 0.498331 11.6789 0 10 0C8.32114 0 6.68 0.498331 5.28414 1.43196C3.88828 2.36559 2.80042 3.69258 2.15815 5.24509C1.51588 6.79759 1.34806 8.50586 1.67591 10.1538C2.00376 11.8018 2.81256 13.3155 4 14.5033L9.1125 19.6328ZM4.0375 7.91005C4.12291 7.01805 4.40627 6.15639 4.86691 5.38799C5.32754 4.6196 5.95381 3.96386 6.7 3.46867C7.68025 2.82448 8.82733 2.48126 10 2.48126C11.1727 2.48126 12.3197 2.82448 13.3 3.46867C14.0412 3.96217 14.6639 4.61392 15.1234 5.37707C15.5829 6.14022 15.8677 6.99579 15.9573 7.88226C16.047 8.76874 15.9392 9.66407 15.6419 10.5039C15.3445 11.3437 14.8649 12.1071 14.2375 12.7393L10 16.9805L5.7625 12.7393C5.1344 12.1133 4.65366 11.355 4.35526 10.5196C4.05685 9.6842 3.9483 8.79273 4.0375 7.91005ZM18.75 22.4978H1.25C0.918479 22.4978 0.600537 22.6296 0.366117 22.8642C0.131696 23.0989 0 23.4171 0 23.7489C0 24.0807 0.131696 24.3989 0.366117 24.6336C0.600537 24.8682 0.918479 25 1.25 25H18.75C19.0815 25 19.3995 24.8682 19.6339 24.6336C19.8683 24.3989 20 24.0807 20 23.7489C20 23.4171 19.8683 23.0989 19.6339 22.8642C19.3995 22.6296 19.0815 22.4978 18.75 22.4978Z" fill="#343434"/>
</svg>
