<svg width="13" height="13" viewBox="0 0 13 13" fill="none" xmlns="http://www.w3.org/2000/svg">
<path d="M6.76044 8.39678C6.60164 8.55542 6.60163 8.81258 6.76042 8.97122C6.83982 9.05064 6.94358 9.09025 7.04755 9.09025C7.15151 9.09025 7.25528 9.05064 7.33467 8.97122L9.7334 6.50833L7.33467 4.04523C7.17608 3.88659 6.91901 3.88659 6.76042 4.04523C6.60163 4.20388 6.60163 4.46103 6.76042 4.61967L8.22935 6.08928H0.406117C0.181737 6.08928 0 6.27128 0 6.49553C0 6.71978 0.181737 6.90178 0.406117 6.90178H8.25493L6.76044 8.39678ZM12.1876 0H4.87746C4.4287 0 4.06501 0.363797 4.06501 0.8125V4.46875H4.88273V1.30792C4.88273 1.03655 5.10284 0.816359 5.37413 0.816359H11.6779C11.9496 0.816359 12.1693 1.03655 12.1693 1.30792L12.1821 11.6963C12.1821 11.9677 11.9624 12.1879 11.6907 12.1879H5.37433C5.10305 12.1879 4.88293 11.9677 4.88293 11.6963V8.51784L4.06522 8.51886V12.1875C4.06522 12.6362 4.42889 13 4.87767 13H12.1878C12.6363 13 13 12.6362 13 12.1875V0.8125C12.9998 0.363797 12.6361 0 12.1876 0Z" fill="white"/>
</svg>
